<svg xmlns="http://www.w3.org/2000/svg" xmlns:xlink="http://www.w3.org/1999/xlink" version="1.1" x="0px" y="0px" viewBox="0 0 100 125" style="enable-background:new 0 0 100 100;" xml:space="preserve"><path d="M36.8,90h26.4c5.1,0,9.3-4.4,9.3-9.8V19.8c0-5.4-4.2-9.8-9.3-9.8H36.8c-5.1,0-9.3,4.4-9.3,9.8v60.4  C27.5,85.6,31.7,90,36.8,90z M29.6,19.8c0-4.2,3.2-7.6,7.2-7.6h26.4c4,0,7.2,3.4,7.2,7.6v60.4c0,4.2-3.2,7.6-7.2,7.6H36.8  c-4,0-7.2-3.4-7.2-7.6V19.8z"/><path d="M50,81.6c2.6,0,4.7-2.1,4.7-4.7c0-2.6-2.1-4.7-4.7-4.7c-2.6,0-4.7,2.1-4.7,4.7C45.3,79.5,47.4,81.6,50,81.6z M50,74.2  c1.5,0,2.7,1.2,2.7,2.7s-1.2,2.7-2.7,2.7s-2.7-1.2-2.7-2.7S48.5,74.2,50,74.2z"/><text x="0" y="115" fill="#000000" font-size="5px" font-weight="bold" font-family="'Helvetica Neue', Helvetica, Arial-Unicode, Arial, Sans-serif">Created by Muhammad Ridho</text><text x="0" y="120" fill="#000000" font-size="5px" font-weight="bold" font-family="'Helvetica Neue', Helvetica, Arial-Unicode, Arial, Sans-serif">from the Noun Project</text></svg>