<svg xmlns="http://www.w3.org/2000/svg" xmlns:xlink="http://www.w3.org/1999/xlink" version="1.1" x="0px" y="0px" viewBox="0 0 48 60" enable-background="new 0 0 48 48" xml:space="preserve"><g><path d="M31.5,19c0-4.1-3.4-7.5-7.5-7.5s-7.5,3.4-7.5,7.5c0,2.9,1.6,5.4,4,6.7l0.9-1.8c-1.7-0.9-2.9-2.8-2.9-4.9   c0-3,2.5-5.5,5.5-5.5s5.5,2.5,5.5,5.5c0,2.1-1.2,3.9-2.9,4.9l0.9,1.8C29.9,24.4,31.5,21.9,31.5,19z"/><path d="M37,19c0-7.2-5.8-13-13-13s-13,5.8-13,13c0,5.1,2.9,9.4,7.1,11.6l0.9-1.8c-3.6-1.8-6-5.5-6-9.8   c0-6.1,4.9-11,11-11s11,4.9,11,11c0,4.3-2.5,8-6,9.8l0.9,1.8C34.1,28.4,37,24.1,37,19z"/><path d="M42,19c0-9.9-8.1-18-18-18S6,9.1,6,19c0,7,4.1,13.1,10,16.1l0.9-1.8C11.6,30.7,8,25.2,8,19   c0-8.8,7.2-16,16-16s16,7.2,16,16c0,6.2-3.6,11.7-8.8,14.3l0.9,1.8C37.9,32.1,42,26,42,19z"/><g><g><path d="M24,22c-1.7,0-3-1.3-3-3s1.3-3,3-3s3,1.3,3,3S25.7,22,24,22z M24,18c-0.6,0-1,0.4-1,1s0.4,1,1,1     s1-0.4,1-1S24.6,18,24,18z"/></g></g><path d="M34.2,44.1L24,23.1l-10.2,21c-0.3,0.6-0.3,1.3,0.1,1.9c0.4,0.6,1,0.9,1.7,0.9h16.8c0.7,0,1.3-0.4,1.7-0.9   C34.5,45.5,34.5,44.7,34.2,44.1z M25,29.8l2.2,4.4L25,36V29.8z M23,36l-2.2-1.8l2.2-4.4V36z M22.5,38.2l-6,5.1l3.5-7.3L22.5,38.2z    M23,40.4V45h-5.5L23,40.4z M25,40.3l5.5,4.7H25V40.3z M25.6,38.2l2.5-2.1l3.5,7.2L25.6,38.2z"/></g><text x="0" y="63" fill="#000000" font-size="5px" font-weight="bold" font-family="'Helvetica Neue', Helvetica, Arial-Unicode, Arial, Sans-serif">Created by Clea Doltz</text><text x="0" y="68" fill="#000000" font-size="5px" font-weight="bold" font-family="'Helvetica Neue', Helvetica, Arial-Unicode, Arial, Sans-serif">from the Noun Project</text></svg>